<?xml version="1.0" encoding="utf-8"?>
<!-- Generator: Adobe Illustrator 19.2.1, SVG Export Plug-In . SVG Version: 6.00 Build 0)  -->
<svg version="1.1" id="Layer_1" xmlns="http://www.w3.org/2000/svg" xmlns:xlink="http://www.w3.org/1999/xlink" x="0px" y="0px"
	 viewBox="0 0 393.3 157.5" style="enable-background:new 0 0 393.3 157.5;" xml:space="preserve">
<style type="text/css">
	.st0{fill:#B5B5B5;}
	.st1{fill:#FCC370;}
	.st2{fill:none;}
	.st3{enable-background:new    ;}
</style>
<path d="M277,115.4c0.1,0,0.2,0.1,0.4,0c0.2,0,0.5,0,0.8-0.1c0.2,0,0.5-0.1,0.8-0.1c0-0.1,0-0.2,0-0.3c-0.3,0-0.5,0-0.7,0
	c-0.3,0-0.6,0-0.7,0c-0.2,0-0.3,0-0.4,0s-0.2,0-0.2,0h-0.1c0,0-0.1,0-0.1,0.1s0,0.1,0,0.2C276.9,115.3,276.9,115.4,277,115.4z"/>
<path d="M101.6,115.4c0.1,0,0.2,0.1,0.4,0c0.2,0,0.5,0,0.8-0.1c0.2,0,0.4,0,0.6-0.1c0-0.1,0-0.1,0-0.2s0-0.1,0-0.2
	c-0.2,0-0.3,0-0.5,0c-0.3,0-0.6,0-0.7,0c-0.2,0-0.3,0-0.4,0s-0.2,0-0.2,0h-0.1c0,0-0.1,0-0.1,0.1s0,0.1,0,0.2
	C101.5,115.3,101.6,115.4,101.6,115.4z"/>
<path class="st0" d="M115.8,61.2h9.4v7.7c3-6.2,8.5-9.1,15.6-9.2v10h-0.7c-9.4,0-14.3,5.2-14.3,15.6v28.3h-10
	C115.9,113.6,115.9,61.2,115.8,61.2z"/>
<path class="st0" d="M148.8,61.2h9.4v8.1c2.5-5.4,8.4-9.7,17.7-9.6C192.6,59.9,197,72,197,82.9v30.7h-10.1V85.2
	c0-9.4-3.7-16.2-13.9-16.1c-9.8,0.1-14.3,6.3-14.3,15.3v29.2h-10L148.8,61.2L148.8,61.2z"/>
<path class="st0" d="M259.7,95.2c-3.2,11.4-13.5,19.9-26.6,19.9c-17.1,0-28-13.2-28-27.7c0-15.5,11.8-27.7,27.5-27.7
	c12.5,0,23.8,7.7,27.1,20.3h-10.3c-2.7-7-9.2-11-16.4-11c-5.3-0.1-9.1,1.6-12.8,5.1c-3.1,3.1-5.1,8-5.1,13.3
	c0,10.8,7.9,18.4,17.9,18.4c8.8-0.1,14.3-5.4,16.4-10.6C249.3,95.2,259.7,95.2,259.7,95.2z"/>
<path class="st0" d="M322.8,113.6h-10v-9.1c-3.7,7-11.2,10.7-19.5,10.7c-16.8-0.1-26.8-13.2-26.8-27.8c0-16,11.7-27.7,26.9-27.7
	c10.4,0,17,5.8,19.5,10.8v-9.2h10L322.8,113.6L322.8,113.6z M276.5,87.6c0.1,7.8,5.6,18.2,18.3,18.2c8,0,13.7-4.4,16.3-10.4
	c1.2-2.4,1.7-5.1,1.8-7.8c0.1-2.7-0.4-5.4-1.5-7.8c-2.5-6.1-8.4-10.8-16.8-10.8C283.5,69,276.5,77.7,276.5,87.6L276.5,87.6z"/>
<path class="st0" d="M339.8,69h-9.4v-7.8h9.4V42.3h10v18.9h10.1V69h-10.1v44.6h-10V69z"/>
<path class="st1" d="M103.9,73.8L96,81.7c2,6.3,0.6,12.8-4.7,18.1c-6,6-17,8.9-25.4,1.2l33.9-33.9c-5.3-6.4-12.3-10.4-20.3-11.3
	l-10.6-13l-5.1,15.8c-2.9,1.4-5.7,3.4-8.1,5.8c-3.7,3.7-6.1,8-7.5,12.5l-14.8,7.7l14.7,8.2c1.3,5,4,9.7,7.8,13.5
	c10.5,10.5,28.9,12.9,41.9,0c4-4,6.9-9,7.9-14.6C106.9,86.1,106.4,80,103.9,73.8z M62.2,70.9c7.4-7.7,18.5-7,24.1-2.1L60.1,95
	C55.1,89.2,54.5,78.6,62.2,70.9z"/>
<rect x="-627.8" y="90.6" class="st2" width="408.9" height="469.5"/>
<text transform="matrix(1 0 0 1 -627.8436 100.9681)" style="font-family:'ITCAvantGardeStd-Md'; font-size:14px;">Erin Moncrieff</text>
<text transform="matrix(1 0 0 1 -627.8436 117.7681)" style="font-family:'ITCAvantGardeStd-Md'; font-size:14px;">Wordmark</text>
<text transform="matrix(1 0 0 1 -627.8436 134.5681)" style="font-family:'ITCAvantGardeStd-Md'; font-size:14px;">Graphic Design 5</text>
<text transform="matrix(1 0 0 1 -627.8436 151.3682)" style="font-family:'ITCAvantGardeStd-Md'; font-size:14px;">Robert Smith</text>
<text transform="matrix(1 0 0 1 -627.8436 168.1681)" style="font-family:'ITCAvantGardeStd-Md'; font-size:14px;">Oct 18 2015</text>
</svg>
